HIERARCHY
ROOT Hips
{
	OFFSET -3.958830 18.904000 13.208200
	CHANNELS 6 Xposition Yposition Zposition Zrotation Yrotation Xrotation 
	JOINT LHipJoint
	{
		OFFSET 0.000000 0.000000 0.000000
		CHANNELS 3 Zrotation Yrotation Xrotation
		JOINT LeftUpLeg
		{
			OFFSET 1.800000 -1.400000 0.085000
			CHANNELS 3 Zrotation Yrotation Xrotation
			JOINT LeftLeg
			{
				OFFSET 2.215000 -6.000000 0.000000
				CHANNELS 3 Zrotation Yrotation Xrotation
				JOINT LeftFoot
				{
					OFFSET 2.500000 -6.900000 0.000000
					CHANNELS 3 Zrotation Yrotation Xrotation
					JOINT LeftToeBase
					{
						OFFSET 0.200000 -0.500000 1.950000
						CHANNELS 3 Zrotation Yrotation Xrotation
						End Site
						{
							OFFSET 0.000000 0.000000 0.000000
						}
					}
				}
			}
		}
	}
	JOINT RHipJoint
	{
		OFFSET 0.000000 0.000000 0.000000
		CHANNELS 3 Zrotation Yrotation Xrotation
		JOINT RightUpLeg
		{
			OFFSET -1.800000 -1.400000 0.085000
			CHANNELS 3 Zrotation Yrotation Xrotation
			JOINT RightLeg
			{
				OFFSET -2.215000 -6.000000 0.000000
				CHANNELS 3 Zrotation Yrotation Xrotation
				JOINT RightFoot
				{
					OFFSET -2.500000 -6.900000 0.000000
					CHANNELS 3 Zrotation Yrotation Xrotation
					JOINT RightToeBase
					{
						OFFSET -0.200000 -0.500000 1.950000
						CHANNELS 3 Zrotation Yrotation Xrotation
						End Site
						{
							OFFSET 0.000000 0.000000 0.000000
						}
					}
				}
			}
		}
	}
	JOINT LowerBack
	{
		OFFSET 0.000000 0.000000 0.000000
		CHANNELS 3 Zrotation Yrotation Xrotation
		JOINT Spine
		{
			OFFSET -0.087000 1.940000 -0.288900
			CHANNELS 3 Zrotation Yrotation Xrotation
			JOINT Spine1
			{
				OFFSET 0.000000 1.950000 0.060000
				CHANNELS 3 Zrotation Yrotation Xrotation
				JOINT Neck
				{
					OFFSET 0.000000 0.000000 0.000000
					CHANNELS 3 Zrotation Yrotation Xrotation
					JOINT Neck1
					{
						OFFSET 0.000000 1.600000 0.340000
						CHANNELS 3 Zrotation Yrotation Xrotation
						JOINT Head
						{
							OFFSET 0.000000 1.667000 -0.240000
							CHANNELS 3 Zrotation Yrotation Xrotation
							End Site
							{
								OFFSET 0.000000 0.000000 0.000000
							}
						}
					}
				}
				JOINT LeftShoulder
				{
					OFFSET 0.000000 0.000000 0.000000
					CHANNELS 3 Zrotation Yrotation Xrotation
					JOINT LeftArm
					{
						OFFSET 2.700000 1.550000 -0.730000
						CHANNELS 3 Zrotation Yrotation Xrotation
						JOINT LeftForeArm
						{
							OFFSET 5.450000 0.000000 0.000000
							CHANNELS 3 Zrotation Yrotation Xrotation
							JOINT LeftHand
							{
								OFFSET 3.450000 0.000000 0.000000
								CHANNELS 3 Zrotation Yrotation Xrotation
								JOINT LeftHandIndex1
								{
									OFFSET 0.750000 0.000000 0.000000
									CHANNELS 3 Zrotation Yrotation Xrotation
									End Site
									{
										OFFSET 0.000000 0.000000 0.000000
									}
								}
							}
						}
					}
				}
				JOINT RightShoulder
				{
					OFFSET 0.000000 0.000000 0.000000
					CHANNELS 3 Zrotation Yrotation Xrotation
					JOINT RightArm
					{
						OFFSET -2.700000 1.550000 -0.730000
						CHANNELS 3 Zrotation Yrotation Xrotation
						JOINT RightForeArm
						{
							OFFSET -5.450000 0.000000 0.000000
							CHANNELS 3 Zrotation Yrotation Xrotation
							JOINT RightHand
							{
								OFFSET -3.450000 0.000000 0.000000
								CHANNELS 3 Zrotation Yrotation Xrotation
								JOINT RightHandIndex1
								{
									OFFSET -0.750000 0.000000 0.000000
									CHANNELS 3 Zrotation Yrotation Xrotation
									End Site
									{
										OFFSET 0.000000 0.000000 0.000000
									}
								}
							}
						}
					}
				}
			}
		}
	}
}
MOTION
Frames: 14
Frame Time: 0.016667
0.152300 17.561500 -2.902370 2.613259 -2.775474 2.104767 -14.843935 13.143452 2.476522 10.974462 -1.586759 -14.068360 -9.941311 9.714602 24.725848 -0.621859 6.543542 2.641602 -0.180510 -0.450730 -0.566790 18.659429 -10.598936 2.779424 -6.958514 3.598113 -24.309687 13.340800 -9.800778 27.144710 -0.015381 -5.179729 3.052004 0.018160 1.191850 -0.077980 -4.618928 -1.567106 -6.552528 19.840925 -6.068806 3.572959 -11.717502 -4.110648 12.985644 1.271644 -11.003272 -10.103787 -25.059469 12.624533 33.938608 -0.887330 0.841240 4.242330 -6.349197 1.431914 4.914461 -53.225949 -2.529936 -7.555345 -11.355727 -56.306474 0.772629 -4.083301 2.772620 0.389370 0.663350 -0.727270 0.338540 3.543837 4.631598 4.578438 31.365779 5.014402 -8.165473 18.002801 59.074165 7.925780 1.359476 -1.598799 -0.758010 0.806190 0.475360 -0.073510 
0.229280 17.448250 -2.896250 3.105467 -3.407667 2.621244 -14.832743 13.096176 2.358181 10.982450 -1.362000 -13.467696 -9.278490 9.223278 23.455236 -0.660604 6.308151 2.745157 -0.176790 -0.443040 -0.569490 18.682848 -10.506924 2.957020 -6.544263 4.130481 -25.208565 15.442930 -9.671349 24.890768 0.003703 -5.038182 3.090366 0.030000 1.212260 -0.062080 -4.671853 -1.465876 -6.553415 20.346036 -5.998511 3.239976 -12.468771 -4.073975 12.658504 1.323452 -10.997503 -9.838808 -24.540265 12.649170 32.957085 -1.004850 1.132320 4.451880 -6.923429 0.855997 4.478793 -51.301071 -2.738171 -6.835158 -10.686629 -49.732032 0.552648 -4.131460 2.733326 0.363940 0.684610 -0.737720 0.348650 3.953854 5.132370 4.635248 31.161102 6.057410 -7.007550 23.815550 58.364082 10.546878 1.395258 -1.640407 -0.754570 0.798310 0.469660 -0.063100 
0.311330 17.313950 -2.895720 3.612024 -4.285585 3.081528 -14.825514 13.066531 2.244018 10.802761 -1.140102 -12.647148 -8.523342 8.672525 22.046574 -0.755404 6.103420 2.845848 -0.182600 -0.472120 -0.574520 18.702158 -10.416189 3.128355 -6.408438 4.729666 -26.365381 17.132700 -9.635692 23.546829 0.009730 -4.997722 3.096805 0.037390 1.252980 -0.040610 -4.712914 -1.401747 -6.559207 20.767439 -5.929126 3.141769 -13.145478 -3.996329 12.267879 1.371009 -11.096758 -9.615568 -24.331559 12.845408 31.829686 -1.229150 1.426500 4.230430 -7.597689 0.439931 4.028149 -49.526346 -2.788032 -5.957885 -10.400323 -43.276275 0.390971 -4.200631 2.659469 0.383590 0.714450 -0.756650 0.354800 4.484643 5.537619 4.746930 31.130449 6.547201 -6.260822 29.777826 59.357682 13.619572 1.390511 -1.670500 -0.787740 0.815000 0.490880 -0.074520 
0.390900 17.165650 -2.918250 3.863829 -5.527980 3.459982 -14.808596 12.979645 2.173565 11.077921 -0.982158 -12.317794 -8.403167 8.634273 21.823411 -0.739896 5.989842 2.838589 -0.080090 -0.331500 -0.509260 18.737960 -10.295760 3.346851 -6.476119 5.791395 -28.715840 18.118439 -9.987605 24.887883 -0.080507 -5.152566 2.993448 0.092500 1.148780 -0.022050 -4.791627 -1.277040 -6.644875 21.342901 -5.826364 3.749879 -13.691461 -3.750395 11.847291 1.505995 -11.252982 -9.475513 -24.460911 12.654176 31.278618 -1.245480 1.302340 2.080040 -8.799343 -0.255818 3.663346 -47.442318 -2.856481 -5.270307 -9.839674 -37.838943 0.195789 -4.152880 2.663116 0.390570 0.652990 -0.680350 0.362750 5.344570 6.348993 4.852318 30.552120 7.076042 -5.610010 35.901835 60.186930 16.848903 1.450784 -1.717728 -0.713770 0.765200 0.425700 -0.068500 
0.473400 17.008530 -2.950200 4.152156 -7.121575 4.189925 -14.793861 12.774191 2.081250 11.179961 -0.926940 -12.771775 -8.513343 8.952938 22.820302 -0.796946 6.168982 2.766319 -0.074100 -0.319050 -0.530400 18.801982 -10.075627 3.704555 -7.947068 7.428612 -32.978730 19.408523 -11.269986 28.801310 -0.207505 -5.822398 2.732693 0.128720 1.189820 0.000070 -4.921107 -1.053999 -6.772883 22.184972 -5.700650 4.482369 -14.502221 -3.369315 11.081114 1.486979 -11.497710 -8.955348 -24.360171 13.113561 29.846720 -1.632900 1.670870 0.925840 -10.164268 -0.297063 3.150438 -45.106890 -2.509308 -4.568926 -9.045705 -34.260188 -0.001146 -4.225727 2.602369 0.408190 0.686410 -0.689660 0.372960 6.621304 6.513554 4.467783 29.888608 8.488814 -4.471341 42.076575 60.621181 20.291960 1.445734 -1.710203 -0.742770 0.801280 0.456420 -0.072820 
0.549530 16.860160 -2.981520 4.229850 -7.898568 4.554573 -14.801474 12.505294 2.013496 11.714391 -1.014784 -13.666728 -9.212285 9.878410 25.101879 -0.807622 6.663756 2.579164 -0.129150 -0.411460 -0.511350 18.863588 -9.674976 4.179087 -11.802476 8.737261 -37.239747 23.829531 -14.054972 32.504558 -0.456588 -6.986854 2.310683 0.102640 1.213250 -0.008220 -5.027859 -1.026730 -7.041585 22.880423 -5.845089 5.908924 -14.991577 -3.136546 10.152224 1.707860 -11.591385 -8.836243 -24.528412 13.565626 29.797789 -2.721150 2.352320 0.085420 -11.527359 -0.812446 2.815123 -43.111791 -2.468213 -3.849944 -7.003864 -30.538001 -0.516266 -4.301306 2.441379 0.472330 0.697230 -0.693510 0.329340 7.434837 7.021438 4.444469 29.510732 9.341113 -3.770193 48.572641 60.951725 23.939711 1.472613 -1.617436 -0.813110 0.861780 0.516090 -0.118250 
0.623330 16.712780 -2.996680 4.345703 -8.196626 4.119511 -14.809484 12.188240 1.928793 12.323397 -1.015469 -13.746958 -10.233984 11.010718 27.314581 -0.662437 7.071683 2.386446 -0.044610 -0.312570 -0.362500 18.937180 -9.204321 4.752424 -17.846497 9.080534 -41.075984 30.970843 -18.214380 35.298855 -0.888889 -8.465681 1.787512 0.117110 1.057540 -0.017090 -5.149094 -1.023618 -7.404216 23.566795 -6.386888 7.921825 -15.771760 -3.259609 9.363174 2.280165 -11.401682 -8.756371 -24.268873 13.444564 31.136407 -4.541520 3.164780 -1.783990 -13.212510 -1.638752 2.543215 -40.484699 -2.867235 -2.879764 -5.030231 -25.523699 -0.751383 -4.239105 2.382617 0.502710 0.610230 -0.587940 0.299520 7.849818 7.666372 4.381036 29.786947 10.926324 -2.895810 55.277353 61.728151 27.950075 1.593249 -1.597117 -0.749760 0.815580 0.428480 -0.149730 
0.684870 16.603630 -3.010540 4.252647 -8.236376 2.820672 -14.808613 11.962133 1.846491 12.793726 -0.994963 -13.762763 -10.259095 12.136224 30.810611 -0.496788 7.582060 2.133168 0.035640 -0.222130 -0.269060 19.005326 -8.804028 5.285830 -23.940713 8.581484 -43.603529 38.260989 -22.339896 36.524685 -1.310143 -9.657267 1.388665 0.110330 0.893170 0.009000 -5.256346 -1.082859 -7.772512 24.486189 -7.268248 10.988142 -16.890164 -3.558025 8.514327 2.945992 -11.308148 -9.298785 -24.856542 13.982341 33.443298 -5.516070 3.481530 -4.144520 -14.687911 -3.152061 2.777720 -37.427637 -2.558504 -2.231414 -4.162441 -21.350725 -0.777555 -4.139640 2.380138 0.570450 0.499360 -0.458400 0.278130 7.970826 9.070076 4.748434 31.213640 12.239358 -2.591919 61.855824 63.298761 32.257767 1.718886 -1.537859 -0.661420 0.743400 0.370750 -0.165640 
0.733330 16.541070 -3.058300 3.766576 -8.128264 0.350506 -14.809679 11.809922 1.832610 13.982552 -0.966971 -13.596029 -10.041482 13.531707 35.198092 -0.429135 8.416207 1.777598 0.070760 -0.219990 -0.188240 19.044962 -8.503934 5.672378 -29.105732 7.934202 -44.259805 45.428295 -25.743546 36.213687 -1.645876 -10.361625 1.164545 0.101630 0.780450 -0.005440 -5.304606 -1.166868 -8.118327 25.475667 -8.982081 16.020674 -17.988026 -4.334125 7.759727 3.522201 -11.516674 -10.163210 -26.790205 15.497817 36.299265 -6.192180 3.206260 -8.820930 -16.211614 -5.424755 3.531050 -33.870208 -1.376410 -1.685323 -3.004708 -17.309763 -0.996121 -4.053006 2.238422 0.753380 0.375200 -0.347670 0.229830 8.469366 11.368823 5.000550 31.662905 14.606900 -2.581414 67.921887 65.727751 37.038392 1.822247 -1.288389 -0.687930 0.799040 0.397670 -0.227840 
0.768080 16.514850 -3.136560 3.073190 -8.471560 -2.993683 -14.832386 11.789122 1.872494 15.629114 -0.700608 -12.792369 -9.885327 14.851293 38.841408 -0.268426 9.055294 1.479842 0.223280 -0.044690 -0.040300 19.022183 -8.328653 5.899283 -32.950005 7.829901 -43.330388 51.179314 -27.667373 35.281010 -1.920007 -10.619068 1.071154 0.148800 0.561240 -0.024950 -5.221428 -1.288136 -8.407046 25.605232 -10.637498 22.811545 -17.906672 -4.960213 7.512377 4.093896 -11.650854 -11.308062 -28.958481 16.433486 39.292688 -6.682390 1.984530 -15.367850 -17.957763 -8.506081 4.714652 -31.178543 -0.410587 -1.259401 -0.811351 -13.249440 -1.183180 -3.846495 2.192448 0.894470 0.182640 -0.165850 0.218490 9.388774 14.768917 5.334422 29.877088 16.896173 -3.313621 74.228347 69.760906 42.942510 2.058925 -0.965540 -0.614260 0.800890 0.309280 -0.253230 
0.785140 16.489810 -3.194600 2.055246 -9.211179 -5.029046 -14.856819 11.742802 1.872415 17.343887 -0.162033 -12.547704 -9.479647 15.900245 41.418667 -0.120219 9.527047 1.293380 0.282300 0.030040 0.001080 19.015594 -8.165774 6.096492 -36.149481 8.157316 -43.152191 56.103063 -28.794132 34.031435 -2.073968 -10.716449 1.054580 0.157270 0.465670 -0.061900 -5.178263 -1.306915 -8.566940 26.704099 -11.622105 27.469163 -17.852238 -4.998476 7.322178 4.503329 -11.772046 -12.727904 -31.460420 17.333438 41.614925 -5.753540 0.220100 -18.288320 -19.460413 -11.593914 6.261952 -29.443150 1.201640 -0.798263 1.672646 -9.431906 -1.216438 -3.707538 2.167295 0.961680 0.065310 -0.080870 0.226570 10.389041 18.402923 5.898880 26.981623 18.181281 -4.137602 84.012514 73.438746 51.590795 2.463840 -0.322217 -0.580080 0.825440 0.264590 -0.241040 
0.803510 16.471640 -3.236910 1.177819 -10.119181 -6.311548 -14.859279 11.689874 1.822061 18.344624 0.444341 -12.525120 -8.493623 16.499847 43.664026 0.101074 9.729342 1.183812 0.400670 0.197190 0.071550 19.030950 -8.120066 6.232629 -38.603739 8.425448 -42.870243 59.625449 -28.719660 32.221580 -2.150185 -10.626849 1.061883 0.183460 0.317060 -0.056110 -5.210820 -1.126747 -8.609842 28.354155 -12.097225 29.924229 -18.470831 -4.794891 7.968660 5.120776 -11.698942 -13.994960 -33.417251 18.263985 43.868444 -5.075530 -1.077580 -18.873110 -19.255417 -13.983732 7.797129 -29.041704 2.167397 -0.409315 3.765896 -6.011886 -1.013246 -3.565716 2.300256 0.919270 -0.038870 0.014890 0.246580 9.266690 21.299129 6.119718 26.935080 19.315702 -5.985265 95.909170 76.189732 62.847169 3.072963 0.853224 -0.436000 0.726300 0.148710 -0.193170 
0.798320 16.452810 -3.255450 0.704455 -10.800954 -6.868460 -14.852104 11.632675 1.769232 18.847688 1.054670 -12.885591 -7.418303 16.877413 45.453519 0.184238 9.925006 1.110702 0.444240 0.255320 0.108330 19.055283 -8.132094 6.335016 -40.750829 8.566180 -42.511185 61.867731 -28.241365 30.567492 -2.158196 -10.515446 1.101618 0.200680 0.271040 -0.073900 -5.270500 -0.884309 -8.647679 29.431348 -11.551971 30.845047 -18.527695 -4.192880 8.663961 5.494394 -11.754600 -14.237852 -33.930822 18.660801 45.173336 -5.579550 -1.544240 -19.106840 -18.712548 -15.112454 8.765992 -28.849476 2.627617 -0.124905 5.905736 -4.005961 -0.863449 -3.522966 2.327847 0.910750 -0.068620 0.038300 0.256090 8.154478 23.126575 5.373208 27.647701 19.745828 -10.196347 110.597315 74.753689 79.581712 2.820539 1.581403 -0.406980 0.717560 0.104780 -0.187480 
0.772440 16.453340 -3.249320 0.638811 -10.846165 -7.167900 -14.823800 11.637344 1.723020 18.848556 1.444362 -12.942530 -6.610848 16.833788 46.073785 0.205970 9.944584 1.111659 0.417790 0.244990 0.096600 19.073919 -8.267428 6.310753 -41.701151 8.523941 -41.132866 61.517691 -27.403706 29.691340 -2.085420 -10.376043 1.146427 0.200650 0.283130 -0.110790 -5.333271 -0.660006 -8.625213 29.766934 -10.749093 30.471108 -18.213169 -3.736742 10.098684 5.538389 -11.814565 -14.485074 -33.733312 18.687789 46.101214 -5.864650 -1.720030 -18.170620 -17.558807 -15.960717 9.577856 -28.416346 2.874123 0.177930 7.037779 -2.449775 -0.711493 -3.540552 2.312184 0.877830 -0.057330 0.016140 0.248580 7.072343 24.490149 5.260271 28.318946 20.661166 -12.545718 126.585107 74.553171 102.234251 1.936565 0.743605 -0.420490 0.742050 0.108350 -0.182160 
